<svg width="1309" height="2412" viewBox="0 0 1309 2412" fill="none" xmlns="http://www.w3.org/2000/svg">
<path d="M97.5034 441.5L97.1498 441.146L97.1498 441.146L97.5034 441.5ZM97.5034 883.5L97.8569 883.854L97.8569 883.854L97.5034 883.5ZM97.5017 1330.5L97.1482 1330.15L97.1481 1330.15L97.5017 1330.5ZM1126.5 2159.5L1126.03 2159.67L1126.5 2159.5ZM1126.5 2241.5L1126.03 2241.67L1126.5 2241.5ZM1126.5 2122.5L1126.03 2122.67L1126.5 2122.5ZM97.1458 0.849522C133.424 37.9597 176.963 104.52 189.66 183.554C202.352 262.559 184.233 354.063 97.1498 441.146L97.8569 441.854C185.174 354.537 203.388 262.708 190.647 183.396C177.911 104.114 134.25 37.3737 97.8609 0.150478L97.1458 0.849522ZM97.1498 441.146C10.9808 527.316 -7.88982 619.014 3.87278 699.034C15.6312 779.025 57.9942 847.315 94.252 886.749L94.9881 886.073C58.8327 846.75 16.5849 778.637 4.86214 698.888C-6.8565 619.168 11.9212 527.789 97.8569 441.854L97.1498 441.146ZM94.252 886.749C95.2194 887.801 96.1824 888.833 97.1405 889.844L97.8663 889.156C96.9117 888.149 95.9521 887.121 94.9881 886.073L94.252 886.749ZM97.1458 442.85C133.424 479.96 176.963 546.519 189.66 625.554C202.352 704.559 184.233 796.063 97.1498 883.146L97.8569 883.854C185.174 796.537 203.388 704.708 190.647 625.396C177.911 546.114 134.25 479.374 97.8609 442.15L97.1458 442.85ZM97.1498 883.146C96.1791 884.117 95.2169 885.089 94.2631 886.061L94.977 886.761C95.9285 885.791 96.8884 884.822 97.8569 883.854L97.1498 883.146ZM94.2631 886.061C9.14366 972.823 -8.35725 1064.98 4.4878 1145.03C17.3283 1225.06 60.4865 1292.97 96.6532 1331.33L97.3808 1330.64C61.3198 1292.4 18.2773 1224.66 5.47517 1144.88C-7.32242 1065.12 10.0921 973.284 94.977 886.761L94.2631 886.061ZM96.6532 1331.33C96.8158 1331.5 96.9782 1331.67 97.1405 1331.84L97.8663 1331.16C97.7046 1330.99 97.5428 1330.81 97.3808 1330.64L96.6532 1331.33ZM97.1442 889.85C133.422 926.96 176.961 993.519 189.658 1072.55C202.35 1151.56 184.231 1243.06 97.1482 1330.15L97.8553 1330.85C185.172 1243.54 203.387 1151.71 190.645 1072.4C177.909 993.114 134.248 926.374 97.8593 889.15L97.1442 889.85ZM97.1481 1330.15C96.9862 1330.31 96.8245 1330.47 96.6629 1330.63L97.3711 1331.34C97.5322 1331.18 97.6936 1331.02 97.8553 1330.85L97.1481 1330.15ZM96.6629 1330.63C9.68113 1417.89 -8.39243 1510.78 4.39338 1591.45C17.1746 1672.09 60.7858 1740.49 97.1388 1778.84L97.8646 1778.16C61.6184 1739.91 18.124 1671.69 5.38105 1591.3C-7.35731 1510.93 10.6264 1418.36 97.3711 1331.34L96.6629 1330.63ZM1308 1512.98C1300.5 1688.14 1282.4 1932.44 1252.48 2096.09C1245 2137 1236.79 2172.85 1227.82 2201.33C1218.84 2229.82 1209.13 2250.84 1198.7 2262.15C1193.49 2267.8 1188.14 2270.98 1182.66 2271.51C1177.19 2272.04 1171.47 2269.94 1165.5 2264.8C1153.52 2254.51 1140.67 2232.17 1126.97 2195.33L1126.03 2195.67C1139.73 2232.53 1152.65 2255.09 1164.85 2265.56C1170.96 2270.81 1176.93 2273.07 1182.76 2272.5C1188.57 2271.94 1194.13 2268.58 1199.43 2262.83C1210.03 2251.35 1219.79 2230.13 1228.77 2201.63C1237.76 2173.1 1245.98 2137.2 1253.47 2096.26C1283.4 1932.55 1301.5 1688.19 1309 1513.02L1308 1512.98ZM1126.97 2195.33C1113.27 2158.48 1104.18 2130.71 1098.98 2110.66C1096.37 2100.64 1094.74 2092.56 1093.98 2086.24C1093.22 2079.92 1093.35 2075.42 1094.23 2072.54C1094.66 2071.11 1095.27 2070.11 1096.01 2069.48C1096.74 2068.85 1097.63 2068.54 1098.72 2068.56C1100.94 2068.6 1103.91 2069.98 1107.59 2072.7C1114.9 2078.11 1124.66 2088.56 1136.14 2102.76C1182.02 2159.54 1254.9 2275.59 1308.07 2365.26L1308.93 2364.74C1255.77 2275.08 1182.85 2158.98 1136.91 2102.14C1125.44 2087.93 1115.61 2077.39 1108.18 2071.89C1104.48 2069.16 1101.29 2067.6 1098.74 2067.56C1097.44 2067.54 1096.29 2067.91 1095.36 2068.72C1094.43 2069.51 1093.74 2070.7 1093.27 2072.25C1092.33 2075.34 1092.23 2080 1092.99 2086.36C1093.75 2092.74 1095.4 2100.87 1098.01 2110.91C1103.23 2131.01 1112.33 2158.82 1126.03 2195.67L1126.97 2195.33ZM1308 1476.98C1303.06 1592.39 1293.52 1737.82 1279.02 1870.43C1264.52 2003.05 1245.08 2122.78 1220.35 2186.82L1221.29 2187.18C1246.07 2123 1265.52 2003.15 1280.01 1870.54C1294.51 1737.91 1304.06 1592.45 1309 1477.02L1308 1476.98ZM1220.35 2186.82C1213.95 2203.39 1207.22 2216.19 1200.15 2224.52C1193.08 2232.84 1185.75 2236.61 1178.15 2235.35C1170.51 2234.08 1162.39 2227.71 1153.82 2215.27C1145.26 2202.84 1136.31 2184.45 1126.97 2159.33L1126.03 2159.67C1135.38 2184.83 1144.37 2203.31 1152.99 2215.83C1161.61 2228.34 1169.93 2235 1177.99 2236.34C1186.09 2237.68 1193.73 2233.62 1200.91 2225.16C1208.09 2216.71 1214.87 2203.79 1221.29 2187.18L1220.35 2186.82ZM1126.97 2159.33C1106.34 2103.84 1096.18 2068.95 1093.96 2050.03C1093.4 2045.31 1093.35 2041.61 1093.73 2038.85C1094.13 2036.08 1094.95 2034.33 1096.08 2033.41C1097.19 2032.51 1098.69 2032.31 1100.67 2032.88C1102.66 2033.46 1105.06 2034.8 1107.83 2036.88C1118.95 2045.21 1135.55 2064.93 1155.17 2091.55C1174.77 2118.15 1197.34 2151.57 1220.4 2187.27L1221.24 2186.72C1198.18 2151.02 1175.59 2117.58 1155.97 2090.96C1136.37 2064.36 1119.68 2044.51 1108.43 2036.08C1105.62 2033.97 1103.11 2032.55 1100.95 2031.92C1098.78 2031.29 1096.9 2031.46 1095.45 2032.64C1094.03 2033.79 1093.15 2035.84 1092.74 2038.71C1092.34 2041.59 1092.4 2045.38 1092.96 2050.15C1095.2 2069.2 1105.41 2104.2 1126.03 2159.67L1126.97 2159.33ZM1220.4 2187.27C1250.68 2234.15 1281.79 2284.93 1308.07 2329.26L1308.93 2328.74C1282.64 2284.41 1251.53 2233.62 1221.24 2186.72L1220.4 2187.27ZM1308 1558.98C1303.06 1674.39 1293.52 1819.82 1279.02 1952.43C1264.52 2085.05 1245.08 2204.78 1220.35 2268.82L1221.29 2269.18C1246.07 2205 1265.52 2085.15 1280.01 1952.54C1294.51 1819.91 1304.06 1674.45 1309 1559.02L1308 1558.98ZM1220.35 2268.82C1213.95 2285.39 1207.22 2298.19 1200.15 2306.52C1193.08 2314.84 1185.75 2318.61 1178.15 2317.35C1170.51 2316.08 1162.39 2309.71 1153.82 2297.27C1145.26 2284.84 1136.31 2266.45 1126.97 2241.33L1126.03 2241.67C1135.38 2266.83 1144.37 2285.31 1152.99 2297.83C1161.61 2310.34 1169.93 2317 1177.99 2318.34C1186.09 2319.68 1193.73 2315.62 1200.91 2307.16C1208.09 2298.71 1214.87 2285.79 1221.29 2269.18L1220.35 2268.82ZM1126.97 2241.33C1106.34 2185.84 1096.18 2150.95 1093.96 2132.03C1093.4 2127.31 1093.35 2123.61 1093.73 2120.85C1094.13 2118.08 1094.95 2116.33 1096.08 2115.41C1097.19 2114.51 1098.69 2114.31 1100.67 2114.88C1102.66 2115.46 1105.06 2116.8 1107.83 2118.88C1118.95 2127.21 1135.55 2146.93 1155.17 2173.55C1174.77 2200.15 1197.34 2233.57 1220.4 2269.27L1221.24 2268.72C1198.18 2233.02 1175.59 2199.58 1155.97 2172.96C1136.37 2146.36 1119.68 2126.51 1108.43 2118.08C1105.62 2115.97 1103.11 2114.55 1100.95 2113.92C1098.78 2113.29 1096.9 2113.46 1095.45 2114.64C1094.03 2115.79 1093.15 2117.84 1092.74 2120.71C1092.34 2123.59 1092.4 2127.38 1092.96 2132.15C1095.2 2151.2 1105.41 2186.2 1126.03 2241.67L1126.97 2241.33ZM1220.4 2269.27C1250.68 2316.15 1281.79 2366.93 1308.07 2411.26L1308.93 2410.74C1282.64 2366.41 1251.53 2315.62 1221.24 2268.72L1220.4 2269.27ZM1308 1439.98C1303.06 1555.39 1293.52 1700.82 1279.02 1833.43C1264.52 1966.05 1245.08 2085.78 1220.35 2149.82L1221.29 2150.18C1246.07 2086 1265.52 1966.15 1280.01 1833.54C1294.51 1700.91 1304.06 1555.45 1309 1440.02L1308 1439.98ZM1220.35 2149.82C1213.95 2166.39 1207.22 2179.19 1200.15 2187.52C1193.08 2195.84 1185.75 2199.61 1178.15 2198.35C1170.51 2197.08 1162.39 2190.71 1153.82 2178.27C1145.26 2165.84 1136.31 2147.45 1126.97 2122.33L1126.03 2122.67C1135.38 2147.83 1144.37 2166.31 1152.99 2178.83C1161.61 2191.34 1169.93 2198 1177.99 2199.34C1186.09 2200.68 1193.73 2196.62 1200.91 2188.16C1208.09 2179.71 1214.87 2166.79 1221.29 2150.18L1220.35 2149.82ZM1126.97 2122.33C1106.34 2066.84 1096.18 2031.95 1093.96 2013.03C1093.4 2008.31 1093.35 2004.61 1093.73 2001.85C1094.13 1999.08 1094.95 1997.33 1096.08 1996.41C1097.19 1995.51 1098.69 1995.31 1100.67 1995.88C1102.66 1996.46 1105.06 1997.8 1107.83 1999.88C1118.95 2008.21 1135.55 2027.93 1155.17 2054.55C1174.77 2081.15 1197.34 2114.57 1220.4 2150.27L1221.24 2149.72C1198.18 2114.02 1175.59 2080.58 1155.97 2053.96C1136.37 2027.36 1119.68 2007.51 1108.43 1999.08C1105.62 1996.97 1103.11 1995.55 1100.95 1994.92C1098.78 1994.29 1096.9 1994.46 1095.45 1995.64C1094.03 1996.79 1093.15 1998.84 1092.74 2001.71C1092.34 2004.59 1092.4 2008.38 1092.96 2013.15C1095.2 2032.2 1105.41 2067.2 1126.03 2122.67L1126.97 2122.33ZM1220.4 2150.27C1250.68 2197.15 1281.79 2247.93 1308.07 2292.26L1308.93 2291.74C1282.64 2247.41 1251.53 2196.62 1221.24 2149.72L1220.4 2150.27Z" fill="black"/>
</svg>
